
<svg xmlns="http://www.w3.org/2000/svg" version="1.1" xmlns:xlink="http://www.w3.org/1999/xlink" preserveAspectRatio="none" x="0px" y="0px" width="1024px" height="1024px" viewBox="0 0 1024 1024">
<defs>
<g id="Layer0_0_FILL">
<path fill="#ffffff" stroke="none" d="
M 1009.8 512.1
Q 1009.8 305.9 864.05 160.15 718.25 14.35 512.1 14.35 305.9 14.35 160.15 160.15 14.35 305.9 14.35 512.1 14.35 679.4 110.35 806.9 124.7216796875 826.0515625 141.3 844.3 150.3951171875 854.312890625 160.15 864.05 264.3 968.2 399.3 997.9 453.25 1009.8 512.1 1009.8 570.8 1009.8 624.6 998.05 759.75 968.3 864.05 864.05 873.8341796875 854.248046875 882.95 844.15 899.5197265625 825.95078125 913.95 806.85 1009.8 679.35 1009.8 512.1
M 966 512.1
Q 966 664.6 878.55 780.9 861.5623046875 803.425390625 841.3 824.6 837.2484375 828.8515625 833.05 833.05 737.95 928.15 614.7 955.25 565.6 966 512.1 966 458.4 966 409.2 955.15 286.1 928.05 191.1 833.05 186.96015625 828.918359375 182.95 824.7 162.651953125 803.538671875 145.7 780.95 58.15 664.65 58.15 512.1 58.15 324.05 191.1 191.1 324.05 58.15 512.1 58.15 700.1 58.15 833.05 191.1 966 324.05 966 512.1
M 538.4 387.25
Q 525.6 363.45 512 363.45 498.5 363.45 485.75 386.55 483.1 391.7 480.4 397.65 474.9 409.6 469.5 426.7 469.2 427.45 468.9 428.15 465.1939453125 439.871484375 461.55 453.7 470.0603515625 429.5947265625 479.1 414.3 479.35 414 479.55 413.7 483.65 406.75 487.85 401.85 489.9 399.45 491.95 397.35 501.65 387.9 511.9 387.9 522.25 387.9 532 397.6 534.05 399.45 536.1 401.85 543.15 410.35 549.95 424 553.05 430.35 556.2 437.65 559.4609375 445.540625 562.65 454.65 562.2982421875 453.3251953125 561.95 452 553.05 418.5 543.75 397.65 541.1 391.7 538.4 387.25
M 521.6 167.4
Q 516.75 164.25 511.95 164.25 507.15 164.25 502.35 167.4 495.65 171.7 489.2 182.1 474.1 206.15 461.75 259.3 443.2 338.55 430.45 423.4 400.75 620.45 396.55 757.85 404.85 757.55 413.15 757.3 414.55 757.25 416 757.25 415.75 745.85 415.8 733.85 416.1 611.3 444.45 423.05 454.95 352.75 470.35 287.15 480.6 243.15 493.05 223.2 498.4 214.6 504 211 507.95 208.4 511.95 208.4 515.95 208.4 519.9 211 525.45 214.6 530.8 223.2 543.3 243.15 553.6 287.15 568.9 352.75 579.45 423.05 607.7 610.55 608.05 732.8 608.1 745.35 607.9 757.2 609.35 757.25 610.8 757.25 619.15 757.55 627.35 757.85 623.15 620.45 593.5 423.4 580.75 338.55 562.25 259.3 549.85 206.15 534.8 182.1 528.3 171.7 521.6 167.4
M 676 775.3
Q 677.2 775.45 678.45 775.7 764.581640625 791.53046875 841.3 824.6 861.5623046875 803.425390625 878.55 780.9 782.55 765.8 669.35 759.75 668.2 759.7 667.05 759.65 647.5 758.6 627.35 757.85 619.15 757.55 610.8 757.25 609.35 757.25 607.9 757.2 561.4 755.75 512.25 755.75 462.75 755.75 416 757.25 414.55 757.25 413.15 757.3 404.85 757.55 396.55 757.85 362.6 759.15 330.15 761.2 315.1 762.15 300.35 763.25 218.1 769.55 145.7 780.95 162.651953125 803.538671875 182.95 824.7 233.48984375 802.9318359375 288.15 788.45 303.75 784.45 319.7 781 354 773.4 389.9 768.75 393.0896484375 768.333203125 396.25 767.95 401.871484375 767.273828125 407.45 766.7 408.95 766.55 410.5 766.55 413.3583984375 766.22890625 416.2 765.9 416.236328125 765.923828125 416.25 765.9 462.9412109375 761 512.25 761 561.203125 761 607.65 765.75 607.688671875 765.7763671875 607.7 765.75 610.580859375 766.08515625 613.45 766.4 614.95 766.55 616.5 766.55 622.103125 767.21484375 627.6 767.9 630.8265625 768.328125 634 768.75 655.3 771.45 676 775.3 Z"/>
</g>

<path id="Layer0_0_1_STROKES" stroke="#ffffff" stroke-width="1" stroke-linejoin="round" stroke-linecap="round" fill="none" d="
M 1009.8 512.1
Q 1009.8 679.35 913.95 806.85 899.5197265625 825.95078125 882.975 844.175 873.8341796875 854.248046875 864.05 864.05 759.75 968.3 624.6 998.05 570.8 1009.8 512.1 1009.8 453.25 1009.8 399.3 997.9 264.3 968.2 160.15 864.05 150.3951171875 854.312890625 141.3 844.3 124.7216796875 826.0515625 110.35 806.9 14.35 679.4 14.35 512.1 14.35 305.9 160.15 160.15 305.9 14.35 512.1 14.35 718.25 14.35 864.05 160.15 1009.8 305.9 1009.8 512.1 Z"/>

<path id="Layer0_0_2_STROKES" stroke="#ffffff" stroke-width="3" stroke-linejoin="round" stroke-linecap="round" fill="none" d="
M 182.95 824.725
Q 233.48984375 802.9318359375 288.15 788.45 303.75 784.45 319.7 781 354 773.4 389.9 768.75 393.0896484375 768.333203125 396.275 767.95 401.871484375 767.273828125 407.45 766.7 408.95 766.55 410.5 766.55 413.3583984375 766.22890625 416.225 765.925 416.236328125 765.923828125 416.25 765.925 462.9412109375 761 512.25 761 561.203125 761 607.675 765.775 607.688671875 765.7763671875 607.7 765.775 610.580859375 766.08515625 613.45 766.4 614.95 766.55 616.5 766.55 622.103125 767.21484375 627.625 767.925 630.8265625 768.328125 634 768.75 655.3 771.45 676 775.3 677.2 775.45 678.45 775.7 764.581640625 791.53046875 841.325 824.6 861.5623046875 803.425390625 878.55 780.9 782.55 765.8 669.35 759.75 668.2 759.7 667.05 759.65 647.5 758.6 627.35 757.85 619.15 757.55 610.8 757.25 609.35 757.25 607.9 757.2 561.4 755.75 512.25 755.75 462.75 755.75 416 757.25 414.55 757.25 413.15 757.3 404.85 757.55 396.55 757.85 362.6 759.15 330.15 761.2 315.1 762.15 300.35 763.25 218.1 769.55 145.7 780.95 162.651953125 803.538671875 182.95 824.725 186.96015625 828.918359375 191.1 833.05 286.1 928.05 409.2 955.15 393.4826171875 883.271875 396.275 767.95
M 145.7 780.95
Q 58.15 664.65 58.15 512.1 58.15 324.05 191.1 191.1 324.05 58.15 512.1 58.15 700.1 58.15 833.05 191.1 966 324.05 966 512.1 966 664.6 878.55 780.9
M 396.55 757.85
Q 400.75 620.45 430.45 423.4 443.2 338.55 461.75 259.3 474.1 206.15 489.2 182.1 495.65 171.7 502.35 167.4 507.15 164.25 511.95 164.25 516.75 164.25 521.6 167.4 528.3 171.7 534.8 182.1 549.85 206.15 562.25 259.3 580.75 338.55 593.5 423.4 623.15 620.45 627.35 757.85
M 416 757.25
Q 415.75 745.85 415.8 733.85 416.1 611.3 444.45 423.05 454.95 352.75 470.35 287.15 480.6 243.15 493.05 223.2 498.4 214.6 504 211 507.95 208.4 511.95 208.4 515.95 208.4 519.9 211 525.45 214.6 530.8 223.2 543.3 243.15 553.6 287.15 568.9 352.75 579.45 423.05 607.7 610.55 608.05 732.8 608.1 745.35 607.9 757.2
M 562.65 454.675
Q 562.2982421875 453.3251953125 561.95 452 553.05 418.5 543.75 397.65 541.1 391.7 538.4 387.25 525.6 363.45 512 363.45 498.5 363.45 485.75 386.55 483.1 391.7 480.4 397.65 474.9 409.6 469.5 426.7 469.2 427.45 468.9 428.15 465.1939453125 439.871484375 461.55 453.7 470.0603515625 429.5947265625 479.1 414.3 479.35 414 479.55 413.7 483.65 406.75 487.85 401.85 489.9 399.45 491.95 397.35 501.65 387.9 511.9 387.9 522.25 387.9 532 397.6 534.05 399.45 536.1 401.85 543.15 410.35 549.95 424 553.05 430.35 556.2 437.65 559.4609375 445.540625 562.65 454.675 566.3982421875 469.1162109375 570.15 485.45 590.2 575.95 608.05 732.8
M 461.55 453.7
Q 437.16328125 546.4103515625 415.8 733.85
M 841.325 824.6
Q 837.2484375 828.8515625 833.05 833.05 737.95 928.15 614.7 955.25 565.6 966 512.1 966 458.4 966 409.2 955.15
M 627.625 767.925
Q 630.41953125 883.313671875 614.7 955.25
M 607.7 765.775
Q 601.55 956.4 511.9 956.5 422.3 956.4 416.25 765.925"/>
</defs>

<g transform="matrix( 1, 0, 0, 1, 0,0) ">
<use xlink:href="#Layer0_0_FILL"/>

<use xlink:href="#Layer0_0_1_STROKES"/>

<use xlink:href="#Layer0_0_2_STROKES"/>
</g>
</svg>
